<?xml version="1.0" encoding="UTF-8"?>
<svg id="Layer_1" data-name="Layer 1" xmlns="http://www.w3.org/2000/svg" viewBox="0 0 510.24 368.5">
  <defs>
    <style>
      .cls-1 {
        fill: #006634;
      }

      .cls-2 {
        fill: #d30000;
      }
    </style>
  </defs>
  <path class="cls-2" d="M385.44,8.81c-.32,2.8-.33,5.7-.25,8.53.16,5.26.57,12.79,2.18,17.74,2.22,6.81,8.71,10.71,12.59,16.45.81-.83.8-2.13,1.15-3.17,1.52-4.55,3.56-9.49,6.17-13.51,7.87-12.17,22.1-15.73,34.92-20.52.12,3.16.5,6.32.37,9.49-.2,4.77-1.82,8.83-1.45,13.67.26,3.37,1.51,7.99,2.32,11.36,1.26,5.24,2.97,10.38,4.17,15.63,4.63-.68,8.38-3.85,12.47-5.88,6.04-2.99,12.81-3.89,19.44-4.67-.47,11.56,2.9,22.74,4.73,34.03,2.23,13.76,3.36,24.16-10.64,31.22-10.55,5.31-25.84,5.49-36.73,1.04-12.63-5.17-18.96-19.22-31.93-23.51s-31.21-.81-43.45,3.24-23.06,10.97-34.78,16.08c-1.43.04-8.95-5.79-10.37-7.06-24.16-21.55-12.39-61.9,12.62-77.32.62-.38,4.82-2.73,5.11-2.45.4,4.57.3,9.21.99,13.77.44,2.87,1.06,5.44,2.65,7.91,2.44,3.78,6.6,6.42,10.16,9.03,1.42-.12,4.92-14.2,5.57-16.26,4.28-13.6,10.95-23.98,23.58-31.14,1.71-.97,5.69-3.09,7.44-3.6.32-.09.63-.16.97-.11Z"/>
  <path class="cls-1" d="M446.64,154.73l-7.42,4.46c-24.17,15.52-34.84,33.99-23.18,62.5,3.19,7.8,8.66,15.83,11.14,23.66,1.58,4.98,1.45,7.09-1.14,11.55-12.45,21.4-47.35,25.33-65.08,8.6-7.04-6.63-8.82-14.45-10.77-23.55-4.11-19.12,2.31-40.56,13.79-55.99,13.38-17.98,33.99-28.46,56.17-30.95,8.81-.99,17.66-.91,26.49-.27Z"/>
  <path class="cls-1" d="M171.36,134.33v49.92h52.68c.29,0,4.48,1.6,5.08,1.88,7.45,3.41,13.42,11.45,13.53,19.83v70.69h-39.13v-58.68c0-1.34-2.31-2.82-3.44-3.28-5.6-2.3-22.67-2.66-27.29,1.6-.39.36-1.43,1.73-1.43,2.17v58.2h-43.68v-142.32h43.68ZM62.03,184.24c-30.56,2.57-40.44,30.68-35.83,57.69,3.35,19.66,16.38,32.9,36.56,34.72h53.64s0-28.8,0-28.8h-43.56c-.79,0-5.15-1.62-6.09-2.07-12.16-5.84-12.5-24.06.29-29.41,1.31-.55,5.5-1.88,6.76-1.88h42.6v-30.24h-54.37ZM254.88,184.25v92.4h44.64v-92.4h-44.64ZM298.2,171.77l.36-.36v-36.72l-.36-.36h-43.56v37.44h43.56Z"/>
  <path class="cls-1" d="M203.28,304.01l17.64,35.76,17.76-35.76h21.24v1.92c-2.9.07-7.07.36-7.41,3.99.66,12.73-.97,26.5-.04,39.1.34,4.54,3.56,4.12,7.23,4.53l.22,1.82h-28.32v-1.92c2.75,0,6.87-.02,7.42-3.5.51-13.28.26-26.64.14-39.94l-21.6,45.13c-.32.38-2.41.45-2.74-.15l-21.62-44.02v37.32c0,.33.48,2.07.67,2.45,1.27,2.51,5.28,2.7,7.73,2.71v1.92h-19.68l.22-1.82c3.6-.33,6.74-.56,7.19-4.81,1.22-11.68-.86-25.3.04-37.18.12-4.63-3.84-5.63-7.69-5.63v-1.92h21.6ZM149.28,355.37v-1.92c-2.75-.03-6.8-.12-7.38-3.54-.18-1.04-.26-3.1-.31-4.25-.2-4.54.1-9.17.1-13.7,3.15-1.63,4.04,1.47,5.57,3.48,5.06,6.63,10.04,13.31,15.1,19.94h17.64v-1.92c-2.35.14-3.95-1.8-5.4-3.36-5-5.36-10.88-13.05-15.24-19.03-.11-.15-.3-.18-.47-.18l.14-.47c5.81-1.1,12.82-4.79,13.31-11.39.94-12.67-12.66-14.62-22.44-15.02-9.78-.41-19.85.33-29.65.01v1.92c2.7.13,6.52.2,7.38,3.3-.07,12.59,1.12,26.3.31,38.83-.33,5.17-3.15,5.32-7.69,5.39v1.92h29.04ZM157.69,314.92c.36,4.59.15,10.66-4.59,12.94-2.25,1.09-8.46,1.72-10.9,1.34-.24-.04-.46-.08-.54-.35.09-.31.22-.62.19-.96-.43-4.95-.59-11.61-.26-16.58.17-2.67.53-4.41,3.55-4.85,5.91-.86,12.04,1.98,12.55,8.45ZM483.41,304.8c-11.3-1.85-23.63-.24-35.09-.79v1.92c3.21.1,6.68.4,7.18,4.22-.67,12.49.96,26.02.03,38.39-.36,4.8-3.07,4.79-7.21,4.91v1.92s33.24-.24,33.24-.24c8.6-1.09,17.42-5.24,21.77-13.03,4.82-8.64,4.59-21.15-2.3-28.63-4.46-4.84-11.21-7.61-17.62-8.66ZM490.43,319.14c3.04,11.1,2.13,32.49-12.96,33.83-3.18.28-7.77.46-8.03-3.72v-39.59c.04-2.08,1.67-2.93,3.54-3.18,8.4-1.13,15.33,4.91,17.45,12.66ZM4.08,304.01v1.92c4.75.33,7.34.22,7.69,5.63-.6,11.96.76,24.63,0,36.5-.34,5.26-3.08,5.26-7.69,5.39v1.92h28.92c.66-.45-.03-1.22.12-1.92-1.76.02-5.66-.19-6.69-1.83-.13-.21-.75-1.99-.75-2.13v-19.08c1.68-.06,3.36,0,5,.4,5.65,1.37,7.56,6.02,8.2,11.36h2.16s0-25.44,0-25.44h-2.15c-.64,7.51-5.59,11.95-13.21,11.28v-18.84c0-.43.79-1.62,1.21-1.91,1.93-1.33,7.79-.89,10.19-.61,1.74.2,4.48.72,6.11,1.33,4.79,1.77,7.18,6.02,7.8,10.92l2.05.23v-15.12H4.08ZM300.12,305.22c-1.86,1.45-6.34-.88-8.48-1.37-11.49-2.65-27.75,1.32-25.66,16.06,1.7,11.98,16.59,13.76,25.13,18.79,9,5.29,5.06,14.99-4.2,15.73-10.11.81-17.63-6.6-19.44-16.1l-2.29-.23v18.72l2.37-.03c1.12-4.26,4.27-2.16,7.18-1.48,4.5,1.05,8.19,1.81,12.9,1.52,9.76-.6,19.44-6.43,18.56-17.38-1.11-13.8-20.03-14.52-28.27-21.17-4.64-3.75-3.45-10.2,2.07-12.29,8.24-3.12,16.6,2.5,20.16,9.73.86,1.75.97,4.92,3.66,3.3v-15.96c-3.1-.71-2.4,1.14-3.71,2.17ZM392.4,304.01l-.24,15.12h2.64c.33-4.33,2.58-9.28,6.72-11.16.73-.33,5.01-1.56,5.64-1.56h4.2v42.12c0,.14-.34,1.49-.43,1.73-1.21,3.44-5.02,2.84-7.99,3.29l-.22,1.82h30.96l-.22-1.82c-1.83-.24-4.32-.17-6.02-.94-2.01-.91-2.28-3.34-2.41-5.27-.85-13.04.66-26.97,0-40.1l.37-.83h3.84c.63,0,4.9,1.23,5.64,1.56,4.28,1.94,6.17,6.74,6.74,11.13l2.62.03-.24-15.12h-51.6ZM333.36,304.01v1.92c1.76-.03,5.73.4,6.82,1.93.5.7.81,3.66.87,4.65.71,12.12-.31,25.22-.31,37.39-.43,3.53-4.64,3.53-7.38,3.54v1.92h49.92l3.36-17.04-2.4.11c-3.36,6.94-7.68,11.97-15.44,13.84-2.51.6-10.11,1.32-12.22.21-.08-.04-1.11-1.12-1.18-1.27-.27-.55-.62-2.03-.67-2.68-1.09-11.85.82-25.4.04-37.42.06-.58.7-3.08,1-3.44,1.14-1.33,4.95-1.78,6.65-1.75v-1.92h-29.04ZM114.97,353.56c-1.96-.18-3.83-.44-5.05-2.15-8.66-14.92-14.51-31.5-22.64-46.72-.61-1.15-.57-1.65-1.97-1.65-1.95,0-1.52,1.08-2.16,2.42-6.89,14.47-13.37,29.18-20.1,43.74-1.54,2.64-3.3,4.61-6.67,4.25v1.92h18.48l-.22-1.82c-1.97-.2-6.94.15-7.4-2.44-.59-3.32,2.49-7.43,3.36-10.57l19.53.16c.96,2.77,4.77,8.07,4.13,10.89-.5,2.18-5.44,1.66-7.16,1.96l-.22,1.82h28.32l-.22-1.82ZM72,337.61l8.28-18.24,8.28,18.24h-16.56Z"/>
  <path class="cls-1" d="M469.59,134.9c1.13.76,3.2,2.87,4.03,4,3.59,4.91,5.42,12.37,2.61,18-.34.07-4.07-1.27-4.69-1.52-2.76-1.11-5.39-2.55-8.21-3.55-14.23-5.04-30.18-6.05-45.06-3.52-6.32,1.08-12.56,2.84-18.91,3.77-.05-.05.26-1.23.37-1.43.3-.51,8.09-4.3,9.3-4.86,10.79-4.93,22.48-8.87,34.05-11.55,7.85-1.82,19.45-4.1,26.51.65Z"/>
  <path class="cls-1" d="M408.89,126.34c-.19.23-2.33,1.91-2.73,2.19-6.58,4.54-10.93,1.67-15.67-3.49-.52-4.98,1.37-10.65,6.41-12.49,7.44-2.72,12.72,3.16,12.55,10.39-.01.62-.29,3.07-.56,3.4Z"/>
</svg>